# xmcd CD database file
#
# Track frame offsets:
#	150
#	14891
#	55564
#	81350
#	102050
#	126066
#	142625
#	165759
#	200162
#
# Disc length: 3439 seconds
#
# Revision: 1
# Processed by: cddbd v1.5.2PL0 Copyright (c) Steve Scherf et al.
# Submitted via: CDex 1.70beta2
#
DISCID=6b0d6d09
DTITLE=Charly Mariano - Nassim
DYEAR=1997
DGENRE=Jazz
TTITLE0=Khartoum
TTITLE1=For Charlie
TTITLE2=La Rose Du Sable
TTITLE3=Oran
TTITLE4=Amoulati
TTITLE5=La Cassba
TTITLE6=Karima
TTITLE7=Ichtiak
TTITLE8=Night-Time In Cairo
EXTD=YEAR: 1997
EXTT0=
EXTT1=
EXTT2=
EXTT3=
EXTT4=
EXTT5=
EXTT6=
EXTT7=
EXTT8=
PLAYORDER=
